<svg width="239" height="53" viewBox="0 0 239 53" fill="none" xmlns="http://www.w3.org/2000/svg">
<path d="M42.4 32.5L49.4 25.5C49.4 20.7 48.2 16.1 46 12.1L29.7 27.2V52.3H32.8C43.7 52.3 52.6 43.5 52.6 32.5H42.4Z" fill="#2563EB"/>
<path d="M10.2 19.8L3.2 26.8C3.2 31.6 4.4 36.2 6.6 40.2L22.9 25.1V0H19.8C8.9 0 0 8.8 0 19.8H10.2V19.8Z" fill="#2563EB"/>
<path d="M79.574 13.288C81.45 13.288 83.158 13.526 84.698 14.002C86.238 14.45 87.498 15.122 88.478 16.018C90.242 17.614 91.474 19.364 92.174 21.268C92.902 23.144 93.266 25.552 93.266 28.492C93.266 29.108 93.182 29.668 93.014 30.172C92.874 30.676 92.636 31.32 92.3 32.104C91.88 32.972 91.628 33.658 91.544 34.162C90.984 35.142 90.06 36.08 88.772 36.976C87.512 37.872 86.14 38.6 84.656 39.16C83.172 39.72 81.87 40 80.75 40C75.346 40 71.496 38.152 69.2 34.456C68.556 33.42 68.052 32.342 67.688 31.222C67.352 30.102 67.184 29.01 67.184 27.946C67.184 25.09 67.688 22.612 68.696 20.512C69.732 18.384 71.16 16.732 72.98 15.556C74.072 14.912 75.206 14.38 76.382 13.96C77.586 13.512 78.65 13.288 79.574 13.288ZM71.552 28.072C71.552 29.584 71.888 30.83 72.56 31.81C73.26 32.79 74.324 33.854 75.752 35.002C76.928 35.45 77.726 35.744 78.146 35.884C78.566 35.996 79.042 36.052 79.574 36.052C82.402 36.052 84.656 35.282 86.336 33.742C88.016 32.202 88.856 30.088 88.856 27.4C88.856 25.272 88.618 23.592 88.142 22.36C87.666 21.128 86.812 20.022 85.58 19.042C84.936 18.51 84.11 18.118 83.102 17.866C82.122 17.614 81.058 17.488 79.91 17.488C78.174 17.488 76.676 18.006 75.416 19.042C74.156 20.05 73.19 21.366 72.518 22.99C71.874 24.614 71.552 26.308 71.552 28.072ZM116.812 36.766C116.952 36.822 117.176 36.892 117.484 36.976C117.792 37.06 118.016 37.144 118.156 37.228C118.296 37.312 118.366 37.438 118.366 37.606C118.394 38.278 118.142 38.838 117.61 39.286C117.106 39.706 116.504 39.916 115.804 39.916C114.712 39.916 113.858 39.622 113.242 39.034C112.626 38.446 112.178 37.55 111.898 36.346C111.786 35.87 111.73 35.212 111.73 34.372C111.73 33.896 111.758 33.126 111.814 32.062C111.87 30.942 111.898 30.046 111.898 29.374C111.898 28.394 111.618 27.54 111.058 26.812C110.526 26.056 109.77 25.678 108.79 25.678C108.202 25.678 107.586 25.86 106.942 26.224C106.298 26.56 105.85 26.98 105.598 27.484C105.178 28.296 104.884 29.178 104.716 30.13C104.408 31.81 104.254 33.56 104.254 35.38C104.254 36.248 104.268 36.92 104.296 37.396C104.296 37.508 104.296 37.732 104.296 38.068C104.324 38.376 104.296 38.67 104.212 38.95C104.156 39.202 104.044 39.44 103.876 39.664C103.736 39.804 103.512 39.916 103.204 40C102.924 40.112 102.658 40.168 102.406 40.168C102.014 40.168 101.524 40 100.936 39.664C100.348 39.328 100.012 38.95 99.9276 38.53L99.8856 37.816C99.8856 37.564 99.9136 37.27 99.9696 36.934C100.306 34.974 100.474 33.266 100.474 31.81C100.474 31.166 100.46 30.662 100.432 30.298L100.39 28.324C100.39 27.652 100.222 27.008 99.8856 26.392C99.5496 25.748 99.1576 25.426 98.7096 25.426C98.5696 25.426 98.3736 25.482 98.1216 25.594C97.8696 25.678 97.6596 25.72 97.4916 25.72C97.2116 25.72 96.9036 25.58 96.5676 25.3C96.2596 25.02 96.1056 24.726 96.1056 24.418C96.1056 23.83 96.3016 23.354 96.6936 22.99C97.1136 22.654 97.5196 22.388 97.9116 22.192C98.3316 21.996 98.8076 21.898 99.3396 21.898C99.7876 21.898 100.152 21.94 100.432 22.024C100.712 22.108 101.09 22.29 101.566 22.57C101.818 22.71 102.112 23.018 102.448 23.494C102.784 23.97 103.064 24.642 103.288 25.51C104.016 24.166 104.912 23.228 105.976 22.696C107.068 22.136 108.454 21.856 110.134 21.856C110.778 21.856 111.464 22.066 112.192 22.486C112.948 22.906 113.592 23.396 114.124 23.956C114.628 24.572 115.048 25.342 115.384 26.266C115.72 27.162 115.888 27.974 115.888 28.702C115.888 29.122 115.86 29.808 115.804 30.76C115.72 31.516 115.678 32.314 115.678 33.154C115.678 35.114 116.056 36.318 116.812 36.766ZM121.072 31.096C121.072 30.032 121.268 28.968 121.66 27.904C122.052 26.812 122.57 25.818 123.214 24.922C123.858 24.026 124.88 23.298 126.28 22.738C127.68 22.15 128.926 21.856 130.018 21.856C131.138 21.856 132.272 22.01 133.42 22.318C134.596 22.626 135.408 23.102 135.856 23.746C136.892 25.202 137.41 26.63 137.41 28.03C137.41 28.786 137.242 29.43 136.906 29.962C136.598 30.494 136.15 31.068 135.562 31.684C135.086 32.188 134.33 32.524 133.294 32.692C132.286 32.86 131.278 32.944 130.27 32.944C129.626 32.944 128.842 32.888 127.918 32.776C126.994 32.636 126.098 32.468 125.23 32.272C125.286 32.832 125.426 33.378 125.65 33.91C125.874 34.442 126.14 34.848 126.448 35.128C127.008 35.66 127.582 35.996 128.17 36.136C128.786 36.276 129.57 36.346 130.522 36.346C131.53 36.346 132.468 36.178 133.336 35.842C134.036 35.59 134.61 35.464 135.058 35.464C135.59 35.464 135.996 35.632 136.276 35.968C136.556 36.276 136.696 36.682 136.696 37.186C136.696 37.886 136.29 38.46 135.478 38.908C134.666 39.356 133.728 39.692 132.664 39.916C131.628 40.112 130.788 40.21 130.144 40.21C128.828 40.21 127.554 39.972 126.322 39.496C125.09 39.02 124.068 38.348 123.256 37.48C122.584 36.696 122.052 35.758 121.66 34.666C121.268 33.546 121.072 32.356 121.072 31.096ZM130.228 25.426C129.612 25.426 128.996 25.552 128.38 25.804C127.764 26.028 127.26 26.35 126.868 26.77C126.364 27.302 126.014 27.736 125.818 28.072C125.65 28.38 125.538 28.814 125.482 29.374C126.182 29.598 127.638 29.71 129.85 29.71C131.054 29.71 131.978 29.528 132.622 29.164C133.294 28.8 133.63 28.324 133.63 27.736C133.63 27.148 133.266 26.616 132.538 26.14C131.81 25.664 131.04 25.426 130.228 25.426ZM152.595 28.87C153.883 28.87 154.527 29.598 154.527 31.054C154.527 31.81 154.261 32.356 153.729 32.692C153.225 33.028 152.595 33.196 151.839 33.196C151.615 33.196 151.377 33.182 151.125 33.154C150.873 33.126 150.607 33.098 150.327 33.07C149.487 32.93 148.731 32.86 148.059 32.86C147.583 32.86 146.869 32.916 145.917 33.028C144.909 33.14 144.139 33.196 143.607 33.196C142.851 33.196 142.179 33.056 141.591 32.776C141.003 32.468 140.709 31.964 140.709 31.264C140.709 30.284 141.073 29.654 141.801 29.374C142.529 29.066 143.551 28.912 144.867 28.912L146.253 28.954C146.925 29.01 147.443 29.038 147.807 29.038L150.873 28.954L152.595 28.87ZM183.313 13.456C183.705 13.456 184.181 13.722 184.741 14.254C185.329 14.758 185.623 15.192 185.623 15.556C185.623 17.264 185.567 19.602 185.455 22.57C185.427 23.298 185.399 24.18 185.371 25.216C185.343 26.224 185.329 27.4 185.329 28.744C185.329 33 185.581 36.136 186.085 38.152C186.057 38.824 185.791 39.314 185.287 39.622C184.783 39.902 184.279 40.042 183.775 40.042C182.655 40.042 181.913 39.65 181.549 38.866C181.213 38.082 181.045 36.962 181.045 35.506C181.045 30.102 181.101 25.132 181.213 20.596C177.993 24.18 175.487 27.19 173.695 29.626C173.695 29.626 173.443 29.794 172.939 30.13C172.463 30.55 172.071 30.76 171.763 30.76C171.035 30.76 170.433 30.578 169.957 30.214C169.481 29.85 169.019 29.318 168.571 28.618L166.555 25.762C165.155 23.802 164.133 22.318 163.489 21.31C163.489 23.886 163.615 27.386 163.867 31.81C164.063 34.358 164.161 36.276 164.161 37.564C164.161 38.236 163.993 38.81 163.657 39.286C163.321 39.734 162.789 39.958 162.061 39.958C161.333 39.958 160.731 39.818 160.255 39.538C159.807 39.258 159.569 38.838 159.541 38.278C159.569 37.802 159.583 37.018 159.583 35.926C159.583 33.742 159.513 31.082 159.373 27.946L159.289 25.678L159.205 22.738C159.177 21.87 159.149 20.862 159.121 19.714C159.093 18.538 159.079 17.264 159.079 15.892C159.079 14.212 159.989 13.372 161.809 13.372C162.369 13.372 162.929 13.512 163.489 13.792C164.077 14.072 164.511 14.478 164.791 15.01C165.015 15.99 165.841 17.614 167.269 19.882C168.697 22.15 170.097 24.278 171.469 26.266C172.701 24.698 173.709 23.522 174.493 22.738C175.837 21.366 176.943 20.092 177.811 18.916C178.707 17.74 179.673 16.326 180.709 14.674C180.961 14.338 181.325 14.058 181.801 13.834C182.277 13.582 182.781 13.456 183.313 13.456ZM193.44 13.036C194.42 13.12 195.274 13.386 196.002 13.834C196.73 14.254 197.094 14.898 197.094 15.766C197.094 16.41 196.786 16.928 196.17 17.32C195.582 17.684 194.868 17.866 194.028 17.866C193.216 17.866 192.656 17.656 192.348 17.236C192.04 16.816 191.886 16.382 191.886 15.934C191.886 15.094 191.97 14.394 192.138 13.834C192.334 13.274 192.768 13.008 193.44 13.036ZM196.8 31.642V32.86C196.8 33.952 196.828 34.988 196.884 35.968C196.968 36.92 197.066 37.886 197.178 38.866C197.178 39.202 196.982 39.51 196.59 39.79C196.198 40.042 195.834 40.168 195.498 40.168C194.966 40.168 194.42 40.07 193.86 39.874C193.328 39.65 193.006 39.384 192.894 39.076C192.726 38.18 192.642 37.382 192.642 36.682C192.642 34.386 192.572 31.81 192.432 28.954C192.32 26.434 192.264 24.67 192.264 23.662C192.264 23.158 192.516 22.724 193.02 22.36C193.524 21.996 194.056 21.814 194.616 21.814C195.428 21.814 195.988 21.996 196.296 22.36C196.632 22.724 196.8 23.298 196.8 24.082V31.642ZM201.708 25.216C201.484 25.048 201.302 24.88 201.162 24.712C201.022 24.516 200.952 24.18 200.952 23.704C200.952 23.172 201.134 22.766 201.498 22.486C201.89 22.178 202.338 22.024 202.842 22.024C203.822 22.024 204.662 22.276 205.362 22.78C206.09 23.284 206.622 23.984 206.958 24.88C207.574 23.732 208.358 22.948 209.31 22.528C210.262 22.08 211.578 21.856 213.258 21.856C213.93 21.856 214.616 22.066 215.316 22.486C216.044 22.878 216.702 23.368 217.29 23.956C217.766 24.572 218.172 25.342 218.508 26.266C218.844 27.162 219.012 27.974 219.012 28.702C219.012 29.122 218.984 29.808 218.928 30.76C218.872 31.768 218.844 32.566 218.844 33.154C218.844 35.114 219.222 36.318 219.978 36.766C220.09 36.822 220.3 36.892 220.608 36.976C220.916 37.06 221.14 37.144 221.28 37.228C221.448 37.312 221.532 37.438 221.532 37.606C221.56 38.278 221.308 38.838 220.776 39.286C220.272 39.706 219.656 39.916 218.928 39.916C217.836 39.916 216.982 39.622 216.366 39.034C215.75 38.446 215.316 37.55 215.064 36.346C214.924 35.898 214.854 35.24 214.854 34.372C214.854 33.896 214.882 33.126 214.938 32.062C215.022 31.222 215.064 30.326 215.064 29.374C215.064 28.394 214.784 27.54 214.224 26.812C213.664 26.056 212.894 25.678 211.914 25.678C211.326 25.678 210.71 25.86 210.066 26.224C209.422 26.56 208.974 26.98 208.722 27.484C208.302 28.352 208.022 29.234 207.882 30.13C207.546 31.866 207.378 33.532 207.378 35.128C207.378 35.52 207.406 36.276 207.462 37.396C207.462 37.48 207.462 37.69 207.462 38.026C207.462 38.334 207.42 38.628 207.336 38.908C207.28 39.188 207.168 39.44 207 39.664C206.888 39.776 206.678 39.888 206.37 40C206.062 40.112 205.796 40.168 205.572 40.168C205.18 40.168 204.69 40 204.102 39.664C203.514 39.328 203.164 38.95 203.052 38.53L203.01 37.942C203.01 37.718 203.038 37.382 203.094 36.934C203.43 34.974 203.598 33.266 203.598 31.81C203.598 31.166 203.584 30.676 203.556 30.34L203.514 28.408C203.514 27.82 203.346 27.26 203.01 26.728C202.674 26.168 202.24 25.664 201.708 25.216ZM224.523 25.468C224.131 25.412 223.809 25.244 223.557 24.964C223.333 24.684 223.221 24.348 223.221 23.956C223.221 23.76 223.263 23.55 223.347 23.326C223.459 23.102 223.613 22.906 223.809 22.738C224.173 22.43 224.663 22.136 225.279 21.856C225.923 21.604 226.385 21.296 226.665 20.932C226.945 20.568 227.085 19.882 227.085 18.874C227.085 18.454 227.057 18.09 227.001 17.782C226.973 17.474 226.959 17.236 226.959 17.068C226.959 16.452 227.183 15.99 227.631 15.682C228.079 15.374 228.597 15.22 229.185 15.22C229.913 15.22 230.403 15.402 230.655 15.766C230.935 16.13 231.075 16.802 231.075 17.782C231.075 18.734 231.033 19.56 230.949 20.26C230.865 20.932 230.683 21.534 230.403 22.066C230.795 22.066 231.439 22.038 232.335 21.982C233.567 21.926 234.421 21.898 234.897 21.898C235.373 21.898 235.793 22.024 236.157 22.276C236.521 22.5 236.703 22.822 236.703 23.242C236.703 23.83 236.577 24.264 236.325 24.544C236.073 24.824 235.709 25.006 235.233 25.09C234.085 25.398 232.461 25.58 230.361 25.636C230.305 26.728 230.277 27.918 230.277 29.206C230.277 31.362 230.403 33.014 230.655 34.162C230.823 35.058 231.103 35.716 231.495 36.136C231.915 36.528 232.531 36.724 233.343 36.724C233.763 36.724 234.099 36.668 234.351 36.556C234.631 36.444 234.785 36.374 234.813 36.346C235.149 36.15 235.457 36.052 235.737 36.052C236.129 36.052 236.409 36.178 236.577 36.43C236.773 36.682 236.871 37.018 236.871 37.438C236.871 38.222 236.451 38.88 235.611 39.412C234.771 39.916 233.693 40.168 232.377 40.168C230.893 40.168 229.633 39.734 228.597 38.866C227.589 37.97 226.987 36.794 226.791 35.338C226.511 34.022 226.371 32.174 226.371 29.794C226.371 28.758 226.427 27.372 226.539 25.636L224.523 25.468Z" fill="#14424C"/>
</svg>
